<svg width="24" height="24" viewBox="0 0 24 24" fill="none" xmlns="http://www.w3.org/2000/svg">
<path d="M12 3.6V4.79998L14.4 2.40002L12 0V1.19998C7.80001 1.19998 4.07998 3.6 2.40002 7.19999L4.56002 8.27999C5.87998 5.51998 8.75997 3.6 12 3.6ZM12 20.4V19.2L9.60001 21.6L12 24V22.8C16.2 22.8 19.92 20.4 21.6 16.8L19.44 15.72C18.12 18.48 15.24 20.4 12 20.4ZM3.6 12H4.79998L2.39996 9.59996L0 12H1.19998C1.19998 16.2 3.6 19.92 7.19999 21.6L8.27999 19.44C5.51998 18.12 3.6 15.24 3.6 12ZM22.8 12C22.8 7.79996 20.3999 4.07998 16.7999 2.39996L15.72 4.55996C18.48 5.87998 20.3999 8.75997 20.3999 12H19.2L21.6 14.4L24 12H22.8Z" fill="currentColor"/>
<path d="M12 16.7999C14.6509 16.7999 16.8 14.6509 16.8 12C16.8 9.34902 14.6509 7.2 12 7.2C9.34904 7.2 7.20001 9.34902 7.20001 12C7.20001 14.6509 9.34904 16.7999 12 16.7999Z" fill="currentColor"/>
</svg>
